<svg viewBox="0 0 16 13" color="#898989" xmlns="http://www.w3.org/2000/svg">
  <path fill-rule="evenodd" clip-rule="evenodd" d="M2.668 0a.5.5 0 0 1 .5.5v4.667a.5.5 0 0 1-1 0V.5a.5.5 0 0 1 .5-.5Zm5.333 0a.5.5 0 0 1 .5.5v2.833h1.5a.5.5 0 0 1 0 1h-4a.5.5 0 1 1 0-1h1.5V.5a.5.5 0 0 1 .5-.5Zm5.334 0a.5.5 0 0 1 .5.5v6a.5.5 0 1 1-1 0v-6a.5.5 0 0 1 .5-.5ZM8 6a.5.5 0 0 1 .5.5v6a.5.5 0 0 1-1 0v-6A.5.5 0 0 1 8 6ZM.168 7.833a.5.5 0 0 1 .5-.5h4a.5.5 0 0 1 0 1h-1.5V12.5a.5.5 0 0 1-1 0V8.333h-1.5a.5.5 0 0 1-.5-.5Zm10.667 1.334a.5.5 0 0 1 .5-.5h4a.5.5 0 1 1 0 1h-1.5V12.5a.5.5 0 1 1-1 0V9.667h-1.5a.5.5 0 0 1-.5-.5Z" fill="currentColor" style="fill:currentColor"/>
</svg>
