<svg color="#898989" viewBox="0 0 18 18" fill="none" xmlns="http://www.w3.org/2000/svg">
  <path fill-rule="evenodd" clip-rule="evenodd" d="M9.001 1.292a7.708 7.708 0 1 0 0 15.416 7.708 7.708 0 0 0 0-15.416ZM.043 9A8.958 8.958 0 1 1 17.96 9 8.958 8.958 0 0 1 .043 9Zm6.016-2.942a.625.625 0 0 1 .884 0l2.058 2.058 2.058-2.058a.625.625 0 1 1 .884.884L9.885 9l2.058 2.058a.625.625 0 0 1-.884.884L9.001 9.884l-2.058 2.058a.625.625 0 1 1-.884-.884L8.117 9 6.06 6.942a.625.625 0 0 1 0-.884Z" fill="currentColor" style="fill:currentColor"/>
</svg>
